<?xml version="1.0" encoding="UTF-8" standalone="no"?> <svg width="64" height="64" viewBox="0 0 64 64" fill="none" xmlns="http://www.w3.org/2000/svg">
<path d="M62 32H60V34.032H62V32Z" fill="black"/>
<path d="M59 14H37.405L27.117 3.71202C26.5455 3.16661 25.786 2.8623 24.996 2.8623C24.206 2.8623 23.4465 3.16661 22.875 3.71202L12.586 14H5C4.20435 14 3.44129 14.3161 2.87868 14.8787C2.31607 15.4413 2 16.2044 2 17V46C2 46.7957 2.31607 47.5587 2.87868 48.1213C3.44129 48.684 4.20435 49 5 49H27.751L38.717 59.966C38.9956 60.2447 39.3263 60.4657 39.6903 60.6165C40.0543 60.7673 40.4445 60.8449 40.8385 60.8449C41.2325 60.8449 41.6227 60.7673 41.9867 60.6165C42.3507 60.4657 42.6814 60.2447 42.96 59.966L53.926 49H59C59.7956 49 60.5587 48.684 61.1213 48.1213C61.6839 47.5587 62 46.7957 62 46V36.032H60V46C60 46.2652 59.8946 46.5196 59.7071 46.7071C59.5196 46.8947 59.2652 47 59 47H41V45H39V47H19V33.369L19.728 34.892C19.8093 35.0618 19.9369 35.2052 20.0962 35.3057C20.2554 35.4062 20.4397 35.4597 20.628 35.46H20.647C20.8393 35.4564 21.0265 35.3974 21.1861 35.2901C21.3458 35.1828 21.4711 35.0317 21.547 34.855L22.273 33.171L23.957 33.89C24.1439 33.9695 24.3505 33.9903 24.5495 33.9495C24.7485 33.9087 24.9303 33.8083 25.0708 33.6616C25.2112 33.5149 25.3037 33.3289 25.3359 33.1284C25.3681 32.9279 25.3385 32.7223 25.251 32.539L22.945 27.7L23.684 27.946C23.9078 28.0214 24.151 28.0152 24.3707 27.9284C24.5903 27.8417 24.7721 27.68 24.884 27.472C25.1332 26.9976 25.3475 26.5056 25.525 26H37V24H26.013C26.092 23.3357 26.092 22.6643 26.013 22H37V20H25.525C25.3468 19.4935 25.1316 19.0009 24.881 18.526C24.7691 18.318 24.5873 18.1564 24.3677 18.0696C24.148 17.9829 23.9048 17.9766 23.681 18.052L19 19.613V16H39V18H41V16H59C59.2652 16 59.5196 16.1054 59.7071 16.2929C59.8946 16.4804 60 16.7348 60 17V20H43V22H60V24H43V26H60V30H62V17C62 16.2044 61.6839 15.4413 61.1213 14.8787C60.5587 14.3161 59.7956 14 59 14V14ZM51.1 49L41.547 58.552C41.357 58.7344 41.1039 58.8363 40.8405 58.8363C40.5771 58.8363 40.324 58.7344 40.134 58.552L30.58 49H51.1ZM4 17C4 16.7348 4.10536 16.4804 4.29289 16.2929C4.48043 16.1054 4.73478 16 5 16H13V19.608L8.389 18.053C8.16328 17.9768 7.91777 17.9837 7.69667 18.0724C7.47557 18.1612 7.29341 18.3259 7.183 18.537C6.93956 19.0096 6.72906 19.4984 6.553 20H4V17ZM13 24V24.281L8.593 25.768C8.45202 25.4329 8.33244 25.0892 8.235 24.739C7.92302 23.6017 7.92302 22.4013 8.235 21.264C8.33201 20.9126 8.45194 20.5678 8.594 20.232L13 21.718V22H11.081V24H13ZM4 22H6.068C5.9885 22.6643 5.9885 23.3357 6.068 24H4V22ZM13 47H5C4.73478 47 4.48043 46.8947 4.29289 46.7071C4.10536 46.5196 4 46.2652 4 46V26H6.553C6.72943 26.5015 6.93992 26.9903 7.183 27.463C7.26764 27.6251 7.39508 27.7608 7.55146 27.8555C7.70785 27.9501 7.88719 28.0001 8.07 28C8.17886 28.0001 8.28698 27.9822 8.39 27.947L9.047 27.726L6.747 32.539C6.65931 32.7224 6.62959 32.9281 6.6618 33.1288C6.694 33.3295 6.7866 33.5157 6.92725 33.6624C7.06791 33.8091 7.24995 33.9095 7.4491 33.9502C7.64826 33.9909 7.85508 33.9699 8.042 33.89L9.726 33.171L10.452 34.855C10.5279 35.0317 10.6532 35.1828 10.8129 35.2901C10.9725 35.3974 11.1597 35.4564 11.352 35.46H11.371C11.5593 35.4597 11.7436 35.4062 11.9028 35.3057C12.0621 35.2052 12.1897 35.0618 12.271 34.892L13 33.369V47ZM11.417 32.043L11.168 31.465C11.0635 31.2218 10.8668 31.03 10.621 30.9315C10.3753 30.8331 10.1005 30.8362 9.857 30.94L9.694 31.01L11.689 26.835L14.165 26H14.3L11.417 32.043ZM17 47H15V29.183L16 27.089L17 29.183V47ZM17 24H15V22H17V24ZM17 20H15V16H17V20ZM22.143 30.94C21.8995 30.8362 21.6247 30.8331 21.379 30.9315C21.1332 31.03 20.9365 31.2218 20.832 31.465L20.583 32.043L17.7 26H17.843L20.314 26.824L22.314 31.011L22.143 30.94ZM23.482 20.227C23.6261 20.5631 23.7474 20.9086 23.845 21.261C24.157 22.3983 24.157 23.5987 23.845 24.736C23.748 25.0896 23.6267 25.4361 23.482 25.773L19 24.28V24H21V22H19V21.72L23.482 20.227ZM15.414 14L24.289 5.12602C24.4791 4.94353 24.7325 4.84163 24.996 4.84163C25.2595 4.84163 25.5129 4.94353 25.703 5.12602L34.577 14H15.414Z" fill="black"/>
<path d="M53.8904 32.1966L44.6973 41.3896L46.1115 42.8039L55.3046 33.6108L53.8904 32.1966Z" fill="black"/>
<path d="M48.2325 30.7818C47.8129 30.3623 47.2783 30.0766 46.6964 29.9609C46.1145 29.8452 45.5113 29.9047 44.9632 30.1317C44.415 30.3588 43.9465 30.7433 43.6169 31.2367C43.2873 31.73 43.1113 32.31 43.1113 32.9033C43.1113 33.4966 43.2873 34.0766 43.6169 34.57C43.9465 35.0633 44.415 35.4478 44.9632 35.6749C45.5113 35.902 46.1145 35.9614 46.6964 35.8457C47.2783 35.73 47.8129 35.4443 48.2325 35.0248C48.5111 34.7462 48.7321 34.4155 48.8829 34.0515C49.0337 33.6875 49.1113 33.2973 49.1113 32.9033C49.1113 32.5093 49.0337 32.1192 48.8829 31.7552C48.7321 31.3911 48.5111 31.0604 48.2325 30.7818V30.7818ZM46.8185 33.6108C46.6786 33.7506 46.5004 33.8457 46.3064 33.8842C46.1125 33.9227 45.9115 33.9028 45.7288 33.8271C45.5462 33.7514 45.39 33.6232 45.2802 33.4588C45.1704 33.2944 45.1118 33.1011 45.1118 32.9033C45.1118 32.7056 45.1704 32.5123 45.2802 32.3479C45.39 32.1834 45.5462 32.0553 45.7288 31.9795C45.9115 31.9038 46.1125 31.884 46.3064 31.9225C46.5004 31.961 46.6786 32.0561 46.8185 32.1958C46.9114 32.2887 46.9852 32.399 47.0355 32.5204C47.0859 32.6418 47.1118 32.7719 47.1118 32.9033C47.1118 33.0347 47.0859 33.1649 47.0355 33.2863C46.9852 33.4077 46.9114 33.5179 46.8185 33.6108V33.6108Z" fill="black"/>
<path d="M54.5999 44.3878C55.1931 44.3877 55.7728 44.2117 56.266 43.8822C56.7592 43.5527 57.1436 43.0843 57.3707 42.5364C57.5978 41.9885 57.6574 41.3855 57.5419 40.8037C57.4264 40.2219 57.1411 39.6874 56.7219 39.2678C56.1503 38.7223 55.3905 38.418 54.6004 38.418C53.8103 38.418 53.0505 38.7223 52.4789 39.2678C52.0598 39.6874 51.7745 40.2218 51.659 40.8035C51.5435 41.3852 51.603 41.988 51.83 42.5359C52.0569 43.0838 52.4412 43.5522 52.9342 43.8818C53.4272 44.2114 54.0069 44.3875 54.5999 44.3878ZM53.8939 40.6818C54.0814 40.4946 54.3355 40.3895 54.6004 40.3895C54.8653 40.3895 55.1194 40.4946 55.3069 40.6818C55.4469 40.8216 55.5424 40.9997 55.5811 41.1938C55.6198 41.3878 55.6001 41.589 55.5245 41.7718C55.4488 41.9546 55.3207 42.1109 55.1562 42.2208C54.9917 42.3308 54.7983 42.3895 54.6004 42.3895C54.4026 42.3895 54.2092 42.3308 54.0447 42.2208C53.8802 42.1109 53.752 41.9546 53.6764 41.7718C53.6007 41.589 53.581 41.3878 53.6198 41.1938C53.6585 40.9997 53.7539 40.8216 53.8939 40.6818V40.6818Z" fill="black"/>
<path d="M24 39H21V41H24V39Z" fill="black"/>
<path d="M37 39H26V41H37V39Z" fill="black"/>
<path d="M41 20H39V23H41V20Z" fill="black"/>
<path d="M41 25H39V28H41V25Z" fill="black"/>
<path d="M41 30H39V33H41V30Z" fill="black"/>
<path d="M41 35H39V38H41V35Z" fill="black"/>
<path d="M41 40H39V43H41V40Z" fill="black"/>
<path d="M37 43H21V45H37V43Z" fill="black"/>
</svg>
