<?xml version="1.0" encoding="iso-8859-1"?>
<!-- Generator: Adobe Illustrator 16.0.0, SVG Export Plug-In . SVG Version: 6.00 Build 0)  -->
<!DOCTYPE svg PUBLIC "-//W3C//DTD SVG 1.1//EN" "http://www.w3.org/Graphics/SVG/1.1/DTD/svg11.dtd">
<svg version="1.1" xmlns="http://www.w3.org/2000/svg" xmlns:xlink="http://www.w3.org/1999/xlink" x="0px" y="0px" width="512px"
	 height="512px" viewBox="0 0 512 512" style="enable-background:new 0 0 512 512;" xml:space="preserve">
<g id="B_-_177_x2C__creditcard_x2C__Business_x2C__cards_x2C__credit_card_x2C__finance_x2C__money_x2C__shopping">
	<g>
		<g>
			<path d="M174.417,379.555c-9.998,0-19.307-5.365-24.296-14.003L63.774,215.993c-3.725-6.464-4.703-14.007-2.754-21.241
				c1.94-7.205,6.551-13.209,12.982-16.906L311.807,40.536c4.199-2.454,9.01-3.756,13.896-3.756c9.979,0,19.274,5.343,24.26,13.945
				l86.377,149.577c7.688,13.424,3.097,30.566-10.227,38.224L188.31,375.836C184.087,378.27,179.284,379.555,174.417,379.555z
				 M325.703,43.973c-3.612,0-7.168,0.962-10.283,2.783L77.593,184.079c-4.77,2.742-8.187,7.196-9.627,12.544
				c-1.449,5.377-0.725,10.98,2.039,15.776l86.346,149.556c3.708,6.419,10.63,10.406,18.067,10.406
				c3.607,0,7.168-0.953,10.298-2.757l237.807-137.312c9.896-5.688,13.294-18.429,7.582-28.405L343.736,54.327
				C340.036,47.942,333.125,43.973,325.703,43.973z"/>
		</g>
		<g>
			<path d="M92.329,261.927c-1.243,0-2.452-0.646-3.118-1.799l-18.27-31.63c-0.478-0.826-0.607-1.808-0.36-2.729
				c0.247-0.921,0.85-1.708,1.676-2.184L352.281,61.933c1.719-0.994,3.918-0.404,4.912,1.315l18.271,31.614
				c0.478,0.826,0.606,1.808,0.36,2.73c-0.247,0.922-0.85,1.708-1.677,2.185L94.124,261.444
				C93.558,261.771,92.939,261.927,92.329,261.927z M78.97,228.016l14.671,25.401L367.436,95.345l-14.672-25.386L78.97,228.016z"/>
		</g>
		<g>
			<path d="M333.51,249.348c-9.977,0-19.286-5.363-24.296-13.996c-3.72-6.498-4.698-14.026-2.765-21.217
				c1.938-7.208,6.576-13.22,13.058-16.926c4.227-2.47,9.073-3.785,13.986-3.785c2.126,0,4.228,0.239,6.282,0.712
				c2.029-6.687,6.534-12.392,12.77-16.022c4.267-2.479,9.109-3.79,14.007-3.79c9.946,0,19.206,5.358,24.165,13.982
				c7.713,13.347,3.128,30.492-10.225,38.211c-4.255,2.43-9.07,3.709-13.942,3.71c-2.15,0-4.273-0.242-6.347-0.721
				c-2.05,6.76-6.554,12.5-12.763,16.115C343.182,248.064,338.372,249.348,333.51,249.348z M333.493,200.618
				c-3.639,0-7.23,0.975-10.387,2.82c-4.835,2.765-8.273,7.221-9.71,12.566c-1.438,5.342-0.709,10.938,2.05,15.757
				c3.717,6.405,10.643,10.395,18.063,10.395c3.609,0,7.182-0.955,10.332-2.761c5.498-3.201,9.208-8.672,10.158-14.998
				c0.162-1.083,0.81-2.033,1.758-2.581c0.948-0.547,2.094-0.634,3.113-0.233c5.825,2.287,12.586,1.813,18.038-1.301
				c9.902-5.726,13.308-18.462,7.575-28.382c-3.684-6.406-10.553-10.381-17.933-10.381c-3.63,0-7.223,0.973-10.39,2.814
				c-5.556,3.234-9.266,8.666-10.175,14.901c-0.158,1.086-0.804,2.041-1.753,2.591c-0.95,0.552-2.099,0.639-3.12,0.238
				C338.672,201.104,336.107,200.618,333.493,200.618z"/>
		</g>
		<g>
			<path d="M154.825,322.546c-1.243,0-2.452-0.646-3.118-1.799c-0.993-1.721-0.404-3.92,1.316-4.914l50.813-29.341
				c1.72-0.992,3.919-0.403,4.913,1.316c0.993,1.721,0.404,3.92-1.316,4.913l-50.813,29.341
				C156.053,322.39,155.435,322.546,154.825,322.546z"/>
		</g>
		<g>
			<path d="M164.461,339.199c-1.243,0-2.453-0.646-3.119-1.8c-0.993-1.721-0.403-3.92,1.317-4.913l110.748-63.914
				c1.72-0.994,3.919-0.404,4.913,1.317c0.993,1.721,0.403,3.92-1.317,4.913l-110.748,63.914
				C165.689,339.044,165.071,339.199,164.461,339.199z"/>
		</g>
		<g>
			<path d="M165.56,256.772c-1.24,0-2.447-0.642-3.114-1.792l-9.911-17.08c-0.997-1.718-0.413-3.919,1.306-4.916
				c1.718-0.995,3.919-0.413,4.916,1.306l9.911,17.08c0.997,1.718,0.413,3.919-1.306,4.916
				C166.794,256.615,166.173,256.772,165.56,256.772z"/>
		</g>
		<g>
			<path d="M178.158,249.497c-1.243,0-2.452-0.645-3.118-1.799l-9.913-17.172c-0.993-1.721-0.404-3.92,1.316-4.913
				c1.721-0.995,3.92-0.404,4.913,1.316l9.913,17.172c0.993,1.721,0.404,3.92-1.316,4.913
				C179.386,249.342,178.768,249.497,178.158,249.497z"/>
		</g>
		<g>
			<path d="M190.785,242.222c-1.244,0-2.455-0.646-3.12-1.802l-9.882-17.155c-0.991-1.721-0.4-3.92,1.321-4.912
				c1.724-0.991,3.921-0.399,4.912,1.321l9.882,17.155c0.991,1.721,0.4,3.92-1.321,4.912
				C192.011,242.067,191.394,242.222,190.785,242.222z"/>
		</g>
		<g>
			<path d="M203.441,234.948c-1.243,0-2.451-0.645-3.118-1.798l-9.911-17.156c-0.994-1.72-0.405-3.92,1.315-4.914
				c1.721-0.996,3.919-0.406,4.914,1.315l9.911,17.156c0.994,1.72,0.405,3.92-1.315,4.914
				C204.67,234.792,204.051,234.948,203.441,234.948z"/>
		</g>
		<g>
			<path d="M216.039,227.674c-1.243,0-2.451-0.645-3.118-1.798l-9.913-17.157c-0.994-1.72-0.405-3.92,1.315-4.914
				c1.718-0.993,3.919-0.405,4.914,1.315l9.913,17.157c0.994,1.72,0.405,3.92-1.315,4.914
				C217.268,227.519,216.649,227.674,216.039,227.674z"/>
		</g>
		<g>
			<path d="M228.635,220.414c-1.243,0-2.452-0.645-3.119-1.799l-9.912-17.172c-0.993-1.72-0.403-3.92,1.317-4.913
				c1.719-0.994,3.919-0.404,4.913,1.317l9.912,17.172c0.993,1.72,0.403,3.92-1.317,4.913
				C229.863,220.259,229.245,220.414,228.635,220.414z"/>
		</g>
		<g>
			<path d="M241.232,213.14c-1.243,0-2.452-0.645-3.118-1.799l-9.914-17.172c-0.993-1.72-0.404-3.92,1.316-4.913
				c1.721-0.994,3.92-0.404,4.913,1.316l9.914,17.172c0.993,1.72,0.404,3.92-1.316,4.913
				C242.461,212.985,241.842,213.14,241.232,213.14z"/>
		</g>
		<g>
			<path d="M253.859,205.866c-1.245,0-2.455-0.646-3.12-1.802l-9.882-17.158c-0.991-1.721-0.4-3.92,1.322-4.912
				c1.721-0.992,3.92-0.399,4.912,1.321l9.882,17.158c0.991,1.721,0.399,3.92-1.322,4.912
				C255.085,205.711,254.468,205.866,253.859,205.866z"/>
		</g>
		<g>
			<path d="M266.485,198.516c-1.24,0-2.446-0.642-3.113-1.792l-9.914-17.081c-0.997-1.718-0.413-3.919,1.306-4.916
				c1.717-0.997,3.918-0.412,4.916,1.306l9.913,17.081c0.997,1.718,0.413,3.919-1.305,4.916
				C267.72,198.359,267.099,198.516,266.485,198.516z"/>
		</g>
		<g>
			<path d="M279.112,191.242c-1.24,0-2.446-0.642-3.113-1.792l-9.913-17.081c-0.997-1.718-0.413-3.919,1.305-4.916
				c1.719-0.996,3.919-0.412,4.916,1.306l9.913,17.081c0.997,1.718,0.413,3.919-1.305,4.916
				C280.347,191.085,279.726,191.242,279.112,191.242z"/>
		</g>
		<g>
			<path d="M291.708,183.966c-1.242,0-2.451-0.645-3.117-1.798l-9.911-17.156c-0.994-1.72-0.405-3.92,1.315-4.914
				c1.718-0.993,3.92-0.406,4.913,1.315l9.911,17.156c0.994,1.72,0.405,3.92-1.315,4.914
				C292.938,183.811,292.319,183.966,291.708,183.966z"/>
		</g>
		<g>
			<path d="M379.241,475.219c-2.418,0-4.835-0.319-7.185-0.951l-265.228-71.097c-14.868-3.996-23.726-19.359-19.747-34.246
				l20.955-78.296c0.376-1.405,1.562-2.445,3.004-2.636c1.44-0.197,2.857,0.507,3.585,1.766l41.724,72.194
				c3.708,6.42,10.631,10.408,18.068,10.408c0,0,0.001,0,0.001,0c3.606,0,7.167-0.953,10.296-2.757L399.008,245.91
				c0.824-0.476,1.806-0.605,2.726-0.36l29.492,7.87c14.876,3.971,23.751,19.333,19.783,34.245l-44.747,166.813
				C402.979,466.69,391.868,475.218,379.241,475.219z M112.742,300.875l-18.71,69.908c-2.956,11.06,3.622,22.473,14.662,25.44
				l265.229,71.097c1.743,0.469,3.532,0.705,5.319,0.705c9.379-0.001,17.634-6.339,20.073-15.412l44.745-166.805
				c2.946-11.074-3.643-22.489-14.689-25.438l-28.055-7.486L188.31,375.836c-4.223,2.434-9.025,3.719-13.89,3.719
				c-0.001,0-0.002,0-0.002,0c-9.998-0.001-19.308-5.366-24.296-14.003L112.742,300.875z"/>
		</g>
		<g>
			<path d="M434.326,339.535c-0.309,0-0.622-0.04-0.934-0.124l-125.722-33.734c-1.405-0.377-2.445-1.563-2.635-3.006
				s0.509-2.856,1.77-3.583l44.715-25.788c0.825-0.477,1.806-0.607,2.726-0.359l90.493,24.188c0.922,0.246,1.709,0.85,2.186,1.676
				c0.478,0.827,0.607,1.81,0.359,2.731l-9.486,35.335C437.367,338.477,435.914,339.535,434.326,339.535z M317.923,300.98
				l113.86,30.551l7.62-28.384l-85.577-22.874L317.923,300.98z"/>
		</g>
		<g>
			<path d="M141.954,347.831c-0.304,0-0.613-0.039-0.92-0.12l-18.605-4.91c-1.613-0.426-2.68-1.882-2.68-3.475
				c0-0.305,0.039-0.613,0.12-0.921c0.507-1.921,2.475-3.064,4.396-2.56l18.605,4.91c1.613,0.426,2.68,1.882,2.68,3.475
				c0,0.305-0.039,0.613-0.12,0.921C145.003,346.765,143.547,347.831,141.954,347.831z"/>
		</g>
		<g>
			<path d="M241.901,394.587c-0.308,0-0.621-0.04-0.933-0.123l-60.298-16.148c-1.607-0.431-2.668-1.885-2.667-3.475
				c0-0.307,0.04-0.619,0.124-0.931c0.513-1.919,2.482-3.056,4.405-2.544l60.298,16.148c1.607,0.431,2.668,1.885,2.667,3.475
				c0,0.307-0.04,0.619-0.124,0.931C244.943,393.526,243.489,394.587,241.901,394.587z"/>
		</g>
		<g>
			<path d="M156.41,371.666c-0.307,0-0.619-0.04-0.929-0.122l-38.033-10.142c-1.608-0.429-2.67-1.882-2.671-3.472
				c0-0.307,0.04-0.619,0.123-0.931c0.512-1.919,2.486-3.055,4.402-2.549l38.033,10.142c1.608,0.429,2.67,1.882,2.671,3.472
				c0,0.307-0.04,0.619-0.123,0.931C159.454,370.604,157.999,371.666,156.41,371.666z"/>
		</g>
	</g>
</g>
<g id="Layer_1">
</g>
</svg>
